<?xml version="1.0" standalone="no"?>
<!DOCTYPE svg PUBLIC "-//W3C//DTD SVG 20010904//EN"
 "http://www.w3.org/TR/2001/REC-SVG-20010904/DTD/svg10.dtd">
<svg version="1.0" xmlns="http://www.w3.org/2000/svg"
 width="250.000000pt" height="250.000000pt" viewBox="0 0 250.000000 250.000000"
 preserveAspectRatio="xMidYMid meet">
<metadata>
Created by potrace 1.11, written by Peter Selinger 2001-2013
</metadata>
<g transform="translate(0.000000,250.000000) scale(0.100000,-0.100000)"
fill="#000000" stroke="none">
<path d="M1819 1826 c62 -117 36 -274 -84 -513 l-72 -143 27 0 c24 0 33 9 64
64 127 226 172 436 118 547 -12 25 -36 58 -53 75 l-30 29 30 -59z"/>
<path d="M968 1394 c31 -41 94 -160 106 -201 7 -23 36 -32 36 -12 0 27 -79
157 -123 203 -44 46 -46 47 -19 10z"/>
<path d="M110 1038 c0 -119 12 -163 50 -183 16 -8 38 -15 50 -15 17 0 20 6 20
39 0 25 -5 41 -15 45 -12 4 -15 26 -15 106 l0 100 -45 0 -45 0 0 -92z"/>
<path d="M325 1121 c-50 -21 -60 -46 -64 -167 l-3 -114 46 0 c46 0 46 0 46 35
0 19 5 35 10 35 6 0 10 18 10 40 0 22 -4 40 -10 40 -5 0 -10 14 -10 31 0 24 4
30 18 27 15 -3 17 -17 20 -106 l3 -102 39 0 40 0 0 110 c0 60 -5 120 -11 134
-18 38 -85 56 -134 37z"/>
<path d="M673 1111 c-40 -25 -53 -69 -53 -183 l0 -88 45 0 c45 0 45 0 45 35 0
19 5 35 10 35 6 0 10 18 10 40 0 22 -4 40 -10 40 -5 0 -10 14 -10 31 0 27 3
30 23 26 14 -4 32 2 52 18 27 23 28 26 14 41 -26 25 -89 28 -126 5z"/>
<path d="M840 986 l0 -146 40 0 40 0 0 105 c0 97 1 105 19 105 27 0 37 -21 18
-35 -23 -17 -22 -73 3 -129 18 -44 21 -46 60 -46 22 0 40 3 40 7 0 4 -10 31
-22 60 -20 49 -20 54 -5 71 27 30 22 94 -9 123 -22 20 -38 24 -105 28 l-79 3
0 -146z"/>
<path d="M1080 1038 c0 -119 12 -163 50 -183 35 -18 56 -19 99 -4 49 17 61 52
61 174 l0 105 -40 0 -40 0 0 -89 c0 -98 -5 -121 -26 -121 -11 0 -14 22 -14
105 l0 105 -45 0 -45 0 0 -92z"/>
<path d="M1320 1090 c0 -39 1 -40 35 -40 l35 0 0 -105 0 -105 40 0 40 0 0 105
0 105 35 0 c34 0 35 1 35 40 l0 40 -110 0 -110 0 0 -40z"/>
<path d="M1593 1106 c-27 -23 -28 -28 -28 -120 0 -118 13 -137 99 -144 l56 -4
0 40 c0 40 -1 41 -37 44 -26 2 -38 8 -38 18 0 10 12 16 38 18 34 3 37 6 37 33
0 27 -3 29 -35 29 -24 0 -35 5 -35 15 0 10 11 15 35 15 34 0 35 1 35 40 l0 40
-49 0 c-38 0 -56 -6 -78 -24z"/>
<path d="M1780 986 l0 -146 40 0 40 0 0 105 c0 97 1 105 19 105 27 0 37 -21
18 -35 -23 -17 -22 -73 3 -129 18 -44 21 -46 60 -46 22 0 40 3 40 7 0 4 -10
31 -22 60 -20 49 -20 54 -5 71 27 30 22 94 -9 123 -22 20 -38 24 -105 28 l-79
3 0 -146z"/>
<path d="M2030 985 l0 -145 40 0 40 0 0 145 0 145 -40 0 -40 0 0 -145z"/>
<path d="M2235 1121 c-50 -21 -60 -46 -64 -167 l-3 -114 46 0 c46 0 46 0 46
35 0 19 5 35 10 35 6 0 10 18 10 40 0 22 -4 40 -10 40 -5 0 -10 14 -10 31 0
24 4 30 18 27 15 -3 17 -17 20 -106 l3 -102 39 0 40 0 0 110 c0 60 -5 120 -11
134 -18 38 -85 56 -134 37z"/>
<path d="M1511 911 c-1 -28 3 -41 8 -35 6 5 6 24 1 44 l-8 35 -1 -44z"/>
<path d="M1370 768 c-13 -18 -59 -74 -102 -124 -43 -51 -78 -95 -78 -98 0 -3
9 -10 19 -16 17 -9 29 0 88 69 37 43 90 106 116 140 l48 61 -33 0 c-27 0 -39
-7 -58 -32z"/>
</g>
</svg>
